<svg width="22" height="20" viewBox="0 0 22 20" fill="none" xmlns="http://www.w3.org/2000/svg">
<path fill-rule="evenodd" clip-rule="evenodd" d="M21.125 5.50625C20.8373 5.1833 20.425 4.99902 19.9925 5H15.5C15.5 2.51472 13.4853 0.5 11 0.5C8.5147 0.5 6.49998 2.51472 6.49998 5H2.00748C1.57757 5.00116 1.16847 5.18525 0.882485 5.50625C0.598872 5.82607 0.46518 6.2517 0.514985 6.67625L1.85186 17.9263C1.94164 18.6852 2.58765 19.2553 3.35186 19.25H18.6565C19.4208 19.2553 20.0668 18.6852 20.1565 17.9263L21.4934 6.67625C21.543 6.25156 21.4089 5.82591 21.125 5.50625ZM7.99998 8.75C7.99998 9.16421 7.6642 9.5 7.24998 9.5C6.83577 9.5 6.49998 9.16421 6.49998 8.75V7.25C6.49998 6.83579 6.83577 6.5 7.24998 6.5C7.6642 6.5 7.99998 6.83579 7.99998 7.25V8.75ZM11 2C12.6568 2 14 3.34315 14 5H7.99998C7.99998 3.34315 9.34313 2 11 2ZM15.5 8.75C15.5 9.16421 15.1642 9.5 14.75 9.5C14.3358 9.5 14 9.16421 14 8.75V7.25C14 6.83579 14.3358 6.5 14.75 6.5C15.1642 6.5 15.5 6.83579 15.5 7.25V8.75Z" stroke="black"/>
</svg>
