<svg width="24" height="16" viewBox="0 0 24 16" fill="none" xmlns="http://www.w3.org/2000/svg">
<path fill-rule="evenodd" clip-rule="evenodd" d="M10.9922 10.805C13.0561 9.43098 13.9769 6.86766 13.2592 4.4944C12.5415 2.12114 10.3545 0.497711 7.87505 0.497711C5.39563 0.497711 3.20862 2.12114 2.49088 4.4944C1.77315 6.86766 2.69398 9.43098 4.75786 10.805C2.93957 11.4752 1.38671 12.7153 0.330986 14.3403C0.17998 14.5647 0.161532 14.8531 0.282708 15.095C0.403884 15.3368 0.645905 15.4947 0.91608 15.5081C1.18625 15.5215 1.44271 15.3883 1.58724 15.1597C2.97081 13.0317 5.33682 11.7479 7.87505 11.7479C10.4133 11.7479 12.7793 13.0317 14.1629 15.1597C14.3918 15.4999 14.8514 15.5932 15.1949 15.3692C15.5383 15.1452 15.6382 14.6869 15.4191 14.3403C14.3634 12.7153 12.8105 11.4752 10.9922 10.805ZM3.75005 6.12499C3.75005 3.84682 5.59687 1.99999 7.87505 1.99999C10.1532 1.99999 12 3.84682 12 6.12499C12 8.40317 10.1532 10.25 7.87505 10.25C5.59794 10.2474 3.75263 8.4021 3.75005 6.12499ZM23.4507 15.3781C23.1038 15.6043 22.6392 15.5065 22.4129 15.1597C21.0308 13.0303 18.6636 11.7466 16.125 11.75C15.7108 11.75 15.375 11.4142 15.375 11C15.375 10.5858 15.7108 10.25 16.125 10.25C17.7864 10.2484 19.2846 9.25041 19.9262 7.71797C20.5677 6.18554 20.2274 4.41779 19.0627 3.23311C17.898 2.04843 16.1363 1.67805 14.5932 2.29343C14.3427 2.40171 14.0532 2.3654 13.8372 2.19864C13.6212 2.03187 13.5129 1.76096 13.5542 1.49124C13.5956 1.22153 13.7803 0.995574 14.0363 0.901243C16.7109 -0.16544 19.7593 0.96 21.099 3.50882C22.4388 6.05764 21.6374 9.2067 19.2422 10.805C21.0605 11.4752 22.6134 12.7153 23.6691 14.3403C23.8953 14.6872 23.7975 15.1518 23.4507 15.3781Z" fill="#171212"/>
</svg>
